<svg xmlns="http://www.w3.org/2000/svg" xmlns:xlink="http://www.w3.org/1999/xlink" viewBox="0 0 314.46 185.17"><defs><style>.cls-1{fill:none;}.cls-2{isolation:isolate;}.cls-3{opacity:0.49;}.cls-4{clip-path:url(#clip-path);}.cls-5{mix-blend-mode:screen;}.cls-6{fill:url(#Degradado_sin_nombre_2);}.cls-7{opacity:0.5;}.cls-8{fill:#010628;}.cls-9{fill:#d600d6;}</style><clipPath id="clip-path"><polygon class="cls-1" points="29.12 528.44 266.25 528.44 266.25 232.7 44.35 232.7 29.12 245.28 29.12 528.44"/></clipPath><linearGradient id="Degradado_sin_nombre_2" x1="141.01" y1="420.71" x2="141.01" y2="191.48" gradientUnits="userSpaceOnUse"><stop offset="0.11" stop-color="#e900d7"/><stop offset="0.2" stop-color="#b500a7"/><stop offset="0.31" stop-color="#86007b"/><stop offset="0.42" stop-color="#5d0055"/><stop offset="0.52" stop-color="#3b0036"/><stop offset="0.64" stop-color="#21001f"/><stop offset="0.75" stop-color="#0f000d"/><stop offset="0.87" stop-color="#040003"/><stop offset="1"/></linearGradient></defs><g class="cls-2"><g id="Capa_1" data-name="Capa 1"><g class="cls-3"><g class="cls-4"><g class="cls-5"><path class="cls-6" d="M139.76,188.29a2.65,2.65,0,0,1-.41-1.54,2.6,2.6,0,0,1,.41-1.54,1.65,1.65,0,0,1,2.51,0,2.6,2.6,0,0,1,.41,1.54,2.65,2.65,0,0,1-.41,1.54,1.67,1.67,0,0,1-2.51,0Zm.5-2.65a2.66,2.66,0,0,0,0,2.21.89.89,0,0,0,1.51,0,2.28,2.28,0,0,0,.23-1.1,2.35,2.35,0,0,0-.23-1.11.89.89,0,0,0-1.51,0Z"/></g></g></g><g class="cls-7"><polygon class="cls-8" points="314.03 0.43 20.66 0.43 20.66 184.74 284.93 184.74 314.03 160.9 314.03 0.43"/></g><path class="cls-9" d="M285.09,185.17H20.23V0H314.46V161.11Zm-264-.86H284.78L313.6,160.7V.86H21.09Z"/><rect class="cls-9" x="290.17" y="175.8" width="25.48" height="0.66" transform="translate(-42.85 232.92) rotate(-39.5)"/><rect class="cls-9" x="296.12" y="179.12" width="19.11" height="0.66" transform="translate(-44.21 236.23) rotate(-39.63)"/><rect class="cls-9" x="304.17" y="182.6" width="9.55" height="0.66" transform="translate(-45.67 239.11) rotate(-39.63)"/><rect class="cls-9" width="14.42" height="185.17"/></g></g></svg>