<?xml version="1.0" standalone="no"?>
<!DOCTYPE svg PUBLIC "-//W3C//DTD SVG 20010904//EN"
 "http://www.w3.org/TR/2001/REC-SVG-20010904/DTD/svg10.dtd">
<svg version="1.0" xmlns="http://www.w3.org/2000/svg"
 width="260.000000pt" height="260.000000pt" viewBox="0 0 260.000000 260.000000"
 preserveAspectRatio="xMidYMid meet">
<metadata>
Created by potrace 1.14, written by Peter Selinger 2001-2017
</metadata>
<g transform="translate(0.000000,260.000000) scale(0.100000,-0.100000)"
fill="#000000" stroke="none">
<path d="M1135 2549 c-75 -15 -88 -18 -124 -30 -226 -72 -421 -240 -526 -454
-11 -22 -20 -41 -20 -42 0 -1 -29 -4 -65 -8 -122 -11 -228 -85 -278 -193 l-27
-57 -2 -380 c-2 -368 -1 -382 20 -435 40 -102 148 -189 258 -208 l40 -7 30
-89 c91 -270 292 -471 564 -564 33 -11 76 -22 95 -25 105 -16 131 -19 190 -19
79 -2 203 10 233 21 12 5 27 9 32 10 50 7 172 60 247 107 184 117 302 271 372
480 l27 81 44 6 c131 18 254 145 272 280 7 57 7 673 -1 719 -16 97 -97 203
-190 247 -27 12 -78 25 -115 28 l-66 6 -30 60 c-116 234 -353 410 -620 462
-76 15 -295 17 -360 4z m-640 -723 c33 -3 71 -8 85 -10 14 -3 48 -7 75 -11 65
-8 101 -13 150 -20 22 -4 60 -8 85 -11 25 -3 56 -6 70 -9 14 -2 45 -6 70 -10
25 -3 56 -8 70 -10 14 -2 50 -7 80 -11 30 -3 57 -6 60 -7 7 -1 181 14 205 19
11 2 40 5 65 8 25 3 79 9 120 15 41 5 102 13 135 16 33 4 68 9 79 11 10 2 44
6 75 9 31 3 67 8 81 10 33 6 126 16 172 20 51 4 117 -31 143 -75 19 -33 20
-53 21 -375 1 -197 -2 -350 -8 -365 -26 -69 -94 -105 -183 -95 -127 14 -223
26 -248 31 -19 3 -105 14 -157 19 -14 2 -44 5 -67 9 -66 9 -114 16 -163 21
-25 3 -58 8 -75 10 -131 17 -163 16 -335 -10 -14 -2 -50 -7 -80 -10 -30 -3
-66 -8 -80 -10 -24 -4 -141 -19 -245 -31 -27 -4 -88 -12 -135 -19 -124 -18
-178 -15 -219 14 -67 48 -70 67 -69 431 0 352 3 372 55 413 25 21 92 48 103
42 3 -2 32 -6 65 -9z"/>
</g>
</svg>
