<?xml version="1.0" encoding="utf-8"?>
<!-- Generator: Adobe Illustrator 25.4.1, SVG Export Plug-In . SVG Version: 6.00 Build 0)  -->
<svg version="1.1" id="Capa_1" xmlns="http://www.w3.org/2000/svg" xmlns:xlink="http://www.w3.org/1999/xlink" x="0px" y="0px"
	 viewBox="0 0 65 65" style="enable-background:new 0 0 65 65;" xml:space="preserve">
<style type="text/css">
	.st0{opacity:0.24;}
	.st1{clip-path:url(#SVGID_00000057108672704879022180000016572068747939313801_);}
	
		.st2{clip-path:url(#SVGID_00000079447651053218158020000003126527726525160370_);fill:url(#SVGID_00000181087215313368705330000005814463029136400038_);}
	.st3{opacity:0.53;}
	
		.st4{clip-path:url(#SVGID_00000081612074061135424330000008568302445859498896_);fill:none;stroke:#3FA9F5;stroke-width:1.023;stroke-miterlimit:10;stroke-dasharray:4.092,4.092;}
	.st5{opacity:0.47;}
	.st6{clip-path:url(#SVGID_00000008107198616382413090000015073037430810811008_);fill:#FFFFFF;}
	.st7{fill:#0D0706;}
	.st8{fill:#561B14;}
	.st9{fill:#26120C;}
	.st10{fill:none;stroke:#000000;stroke-width:0.254;stroke-linecap:round;stroke-linejoin:round;stroke-miterlimit:10;}
	.st11{fill:#F2E500;}
	.st12{fill:#D86413;}
</style>
<g>
	<g class="st0">
		<g>
			<defs>
				<rect id="SVGID_1_" x="1.3" y="0.6" width="62.5" height="63.8"/>
			</defs>
			<clipPath id="SVGID_00000117667985168418980610000016649177783603492779_">
				<use xlink:href="#SVGID_1_"  style="overflow:visible;"/>
			</clipPath>
			<g style="clip-path:url(#SVGID_00000117667985168418980610000016649177783603492779_);">
				<defs>
					<path id="SVGID_00000013915038322177478270000001663250987311933112_" d="M59.6,0.6H5.4c-2.3,0-4.1,1.8-4.1,4.1v55.6
						c0,2.3,1.8,4.1,4.1,4.1h54.3c2.3,0,4.1-1.8,4.1-4.1V4.7C63.7,2.4,61.9,0.6,59.6,0.6 M59.4,55.9c0,1.9-1.6,3.5-3.5,3.5H9.1
						c-1.9,0-3.5-1.6-3.5-3.5V9.1c0-1.9,1.6-3.5,3.5-3.5h46.9c1.9,0,3.5,1.6,3.5,3.5V55.9z"/>
				</defs>
				<clipPath id="SVGID_00000053507347807287073020000017917790604732518534_">
					<use xlink:href="#SVGID_00000013915038322177478270000001663250987311933112_"  style="overflow:visible;"/>
				</clipPath>
				
					<linearGradient id="SVGID_00000158730827564289157340000012132586734947119277_" gradientUnits="userSpaceOnUse" x1="2020.5518" y1="464.0144" x2="2021.5518" y2="464.0144" gradientTransform="matrix(0 -62.8392 -62.8392 0 29190.7832 127034.0625)">
					<stop  offset="0" style="stop-color:#6472CB"/>
					<stop  offset="0.4391" style="stop-color:#7AA5D8"/>
					<stop  offset="0.7943" style="stop-color:#88C7E1"/>
					<stop  offset="0.986" style="stop-color:#8ED4E4"/>
					<stop  offset="1" style="stop-color:#8ED4E4"/>
				</linearGradient>
				
					<rect x="1.3" y="0.6" style="clip-path:url(#SVGID_00000053507347807287073020000017917790604732518534_);fill:url(#SVGID_00000158730827564289157340000012132586734947119277_);" width="62.5" height="63.8"/>
			</g>
		</g>
	</g>
	<g class="st3">
		<g>
			<defs>
				<rect id="SVGID_00000059273738084522973260000008900233596981418395_" x="0.8" y="0.1" width="63.5" height="64.9"/>
			</defs>
			<clipPath id="SVGID_00000061469247472023671690000010710799727679631037_">
				<use xlink:href="#SVGID_00000059273738084522973260000008900233596981418395_"  style="overflow:visible;"/>
			</clipPath>
			
				<path style="clip-path:url(#SVGID_00000061469247472023671690000010710799727679631037_);fill:none;stroke:#3FA9F5;stroke-width:1.023;stroke-miterlimit:10;stroke-dasharray:4.092,4.092;" d="
				M59.6,0.6H5.4c-2.3,0-4.1,1.8-4.1,4.1v55.6c0,2.3,1.8,4.1,4.1,4.1h54.3c2.3,0,4.1-1.8,4.1-4.1V4.7C63.7,2.4,61.9,0.6,59.6,0.6z
				 M59.4,55.9c0,1.9-1.6,3.5-3.5,3.5H9.1c-1.9,0-3.5-1.6-3.5-3.5V9.1c0-1.9,1.6-3.5,3.5-3.5h46.9c1.9,0,3.5,1.6,3.5,3.5V55.9z"/>
		</g>
	</g>
	<g class="st5">
		<g>
			<defs>
				<rect id="SVGID_00000101786251609550731310000017239529191961173951_" x="5.6" y="5.6" width="53.9" height="53.9"/>
			</defs>
			<clipPath id="SVGID_00000151538761105998738970000000413193122265391522_">
				<use xlink:href="#SVGID_00000101786251609550731310000017239529191961173951_"  style="overflow:visible;"/>
			</clipPath>
			<path style="clip-path:url(#SVGID_00000151538761105998738970000000413193122265391522_);fill:#FFFFFF;" d="M59.4,55.9
				c0,1.9-1.6,3.5-3.5,3.5H9.1c-1.9,0-3.5-1.6-3.5-3.5V9.1c0-1.9,1.6-3.5,3.5-3.5h46.9c1.9,0,3.5,1.6,3.5,3.5V55.9z"/>
		</g>
	</g>
	<path class="st7" d="M14.5,32.7c0-3.3,2.7-6,6-6c3.3,0,6,2.7,6,6c0,3.3-2.7,6-6,6C17.2,38.7,14.5,36,14.5,32.7"/>
	<path class="st8" d="M19.5,38.5c3.2,0,5.4-2.6,5.4-5.8c0-3.2-2.2-5.9-5.4-5.9c0,0,0.9-0.3,2.1-0.1c2,0.3,4.7,1.7,4.9,6
		c0,0,0.3,3.8-4.2,5.8C21,38.9,19.5,38.5,19.5,38.5"/>
	<path class="st9" d="M23.4,38.1l-1.6,0c0,0,0,0,0,0c0,0,0,0,0,0l1.6-0.1C23.4,37.9,23.4,38,23.4,38.1C23.4,38,23.4,38.1,23.4,38.1
		L23.4,38.1z"/>
	<path class="st9" d="M24.3,37.5h-1.6c0,0,0,0,0,0s0,0,0,0l1.6-0.1C24.3,37.3,24.4,37.4,24.3,37.5C24.4,37.4,24.3,37.5,24.3,37.5
		L24.3,37.5z"/>
	<path class="st9" d="M25.5,36.2h-1.6c0,0,0,0,0,0c0,0,0,0,0,0l1.6-0.1C25.5,36.1,25.5,36.1,25.5,36.2
		C25.5,36.2,25.5,36.2,25.5,36.2L25.5,36.2z"/>
	<path class="st9" d="M25.8,35.6l-1.6,0c0,0,0,0,0,0c0,0,0,0,0,0l1.6-0.1C25.9,35.4,25.9,35.5,25.8,35.6
		C25.9,35.5,25.9,35.6,25.8,35.6L25.8,35.6z"/>
	<path class="st9" d="M26.1,34.9h-1.6c0,0,0,0,0,0c0,0,0,0,0,0l1.6-0.1C26.1,34.8,26.2,34.8,26.1,34.9
		C26.2,34.9,26.1,34.9,26.1,34.9L26.1,34.9z"/>
	<path class="st9" d="M26.3,34.2l-1.6,0c0,0,0,0,0,0c0,0,0,0,0,0l1.6-0.1C26.3,34.1,26.4,34.1,26.3,34.2
		C26.4,34.2,26.3,34.2,26.3,34.2C26.3,34.2,26.3,34.2,26.3,34.2"/>
	<path class="st9" d="M26.4,33.2h-1.6c0,0,0,0,0,0c0,0,0,0,0,0l1.6-0.1C26.5,33.1,26.5,33.1,26.4,33.2
		C26.5,33.2,26.5,33.2,26.4,33.2L26.4,33.2z"/>
	<path class="st9" d="M26.4,32.1l-1.6,0.2c0,0,0,0,0,0c0,0,0,0,0,0l1.6-0.2C26.5,32,26.5,32,26.4,32.1
		C26.5,32.1,26.5,32.1,26.4,32.1L26.4,32.1z"/>
	<path class="st9" d="M26.3,31.1l-1.5,0.5c0,0,0,0,0,0c0,0,0,0,0,0l1.5-0.6C26.3,30.9,26.3,30.9,26.3,31.1
		C26.4,31,26.3,31,26.3,31.1C26.3,31.1,26.3,31.1,26.3,31.1"/>
	<path class="st9" d="M25.9,29.9l-1.4,0.7c0,0,0,0,0,0c0,0,0,0,0,0l1.4-0.8C25.9,29.7,26,29.7,25.9,29.9C26,29.8,26,29.8,25.9,29.9
		C25.9,29.9,25.9,29.9,25.9,29.9"/>
	<path class="st9" d="M25.2,28.8l-1.1,0.9c0,0,0,0,0,0c0,0,0,0,0,0L25.2,28.8C25.2,28.7,25.2,28.7,25.2,28.8
		C25.3,28.8,25.3,28.8,25.2,28.8L25.2,28.8z"/>
	<path class="st9" d="M24.3,27.9l-0.7,0.9c0,0,0,0,0,0c0,0,0,0,0,0l0.6-1C24.2,27.8,24.2,27.8,24.3,27.9
		C24.3,27.8,24.3,27.8,24.3,27.9C24.3,27.9,24.3,27.9,24.3,27.9"/>
	<path class="st9" d="M23.1,27.2l-0.5,0.7c0,0,0,0,0,0c0,0,0,0,0,0l0.4-0.7C23,27.1,23.1,27.1,23.1,27.2
		C23.1,27.1,23.1,27.2,23.1,27.2C23.1,27.2,23.1,27.2,23.1,27.2"/>
	<path class="st9" d="M24.9,36.8h-1.6c0,0,0,0,0,0c0,0,0,0,0,0l1.5-0.1C25,36.7,25,36.7,24.9,36.8C25,36.8,25,36.8,24.9,36.8
		L24.9,36.8z"/>
	<path class="st10" d="M14.5,32.7c0-3.3,2.7-6,6-6c3.3,0,6,2.7,6,6c0,3.3-2.7,6-6,6C17.2,38.7,14.5,36,14.5,32.7z"/>
	<path class="st11" d="M19.9,32.8c0.1,1.9,0.6,3.4,1.1,3.3c0.5,0,0.8-1.6,0.7-3.5c-0.1-1.9-0.7-3.4-1.1-3.3
		C20,29.4,19.7,31,19.9,32.8"/>
	<path class="st12" d="M18.8,30c0-0.2-0.2-0.3-0.4-0.3c-0.2,0-0.3,0.2-0.3,0.4c0,0.2,0.2,0.3,0.4,0.3C18.7,30.4,18.9,30.2,18.8,30"
		/>
	<path class="st12" d="M18.3,33c0-0.2-0.2-0.3-0.4-0.3c-0.2,0-0.3,0.2-0.3,0.4c0,0.2,0.2,0.3,0.4,0.3C18.1,33.3,18.3,33.1,18.3,33"
		/>
	<path class="st12" d="M19.2,35.8c0-0.2-0.2-0.3-0.4-0.3c-0.2,0-0.3,0.2-0.3,0.4c0,0.2,0.2,0.3,0.4,0.3C19.1,36.2,19.2,36,19.2,35.8
		"/>
	<path class="st12" d="M22.5,29.5c0-0.2,0.1-0.4,0.3-0.4c0.2,0,0.4,0.1,0.4,0.3c0,0.2-0.1,0.4-0.3,0.4
		C22.7,29.8,22.5,29.7,22.5,29.5"/>
	<path class="st12" d="M23.4,32.4c0-0.2,0.1-0.4,0.3-0.4c0.2,0,0.4,0.1,0.4,0.3c0,0.2-0.1,0.4-0.3,0.4
		C23.6,32.8,23.4,32.6,23.4,32.4"/>
	<path class="st12" d="M23,35.5c0-0.2,0.1-0.4,0.3-0.4c0.2,0,0.4,0.1,0.4,0.3c0,0.2-0.1,0.4-0.3,0.4C23.2,35.9,23.1,35.7,23,35.5"/>
	<path class="st12" d="M22.2,31.9c0-0.3-0.3-0.6-0.6-0.5c-0.3,0-0.6,0.3-0.5,0.6c0,0.3,0.3,0.6,0.6,0.5C22,32.5,22.2,32.2,22.2,31.9
		"/>
	<path class="st7" d="M39.1,32c0-3.1,2.6-5.7,5.7-5.7c3.1,0,5.7,2.6,5.7,5.7c0,3.1-2.6,5.7-5.7,5.7C41.7,37.7,39.1,35.1,39.1,32"/>
	<path class="st8" d="M43.6,37.6c3.1,0,5.3-2.5,5.3-5.6c0-3-2.1-5.6-5.3-5.6c0,0,0.9-0.3,2.1-0.1c1.9,0.3,4.6,1.6,4.8,5.8
		c0,0,0.6,3.5-4.1,5.5C45,37.8,43.6,37.6,43.6,37.6"/>
	<path class="st11" d="M43.1,32.8c0.1,1.9,0.6,3.4,1.1,3.3c0.5,0,0.8-1.6,0.7-3.5c-0.1-1.9-0.7-3.4-1.1-3.3
		C43.3,29.4,43,31,43.1,32.8"/>
	<path class="st12" d="M42.1,30c0-0.2-0.2-0.3-0.4-0.3c-0.2,0-0.3,0.2-0.3,0.4c0,0.2,0.2,0.3,0.4,0.3C42,30.4,42.1,30.2,42.1,30"/>
	<path class="st12" d="M41.5,33c0-0.2-0.2-0.3-0.4-0.3c-0.2,0-0.3,0.2-0.3,0.4c0,0.2,0.2,0.3,0.4,0.3C41.4,33.3,41.5,33.1,41.5,33"
		/>
	<path class="st12" d="M42.4,35.8c0-0.2-0.2-0.3-0.4-0.3c-0.2,0-0.3,0.2-0.3,0.4c0,0.2,0.2,0.3,0.4,0.3C42.3,36.2,42.5,36,42.4,35.8
		"/>
	<path class="st12" d="M45.7,29.5c0-0.2,0.1-0.4,0.3-0.4c0.2,0,0.4,0.1,0.4,0.3c0,0.2-0.1,0.4-0.3,0.4
		C45.9,29.8,45.8,29.7,45.7,29.5"/>
	<path class="st12" d="M46.7,32.4c0-0.2,0.1-0.4,0.3-0.4c0.2,0,0.4,0.1,0.4,0.3c0,0.2-0.1,0.4-0.3,0.4
		C46.8,32.8,46.7,32.6,46.7,32.4"/>
	<path class="st12" d="M46.3,35.5c0-0.2,0.1-0.4,0.3-0.4c0.2,0,0.4,0.1,0.4,0.3c0,0.2-0.1,0.4-0.3,0.4
		C46.5,35.9,46.3,35.7,46.3,35.5"/>
	<path class="st12" d="M45.5,31.9c0-0.3-0.3-0.6-0.6-0.5c-0.3,0-0.6,0.3-0.5,0.6c0,0.3,0.3,0.6,0.6,0.5
		C45.2,32.5,45.5,32.2,45.5,31.9"/>
	<path class="st9" d="M47.3,37.2l-1.6,0c0,0,0,0,0,0c0,0,0,0,0,0l1.6-0.1C47.3,37.1,47.3,37.1,47.3,37.2
		C47.4,37.2,47.3,37.2,47.3,37.2C47.3,37.2,47.3,37.2,47.3,37.2"/>
	<path class="st9" d="M48.2,36.7l-1.6,0c0,0,0,0,0,0c0,0,0,0,0,0l1.6-0.1C48.2,36.5,48.3,36.6,48.2,36.7
		C48.3,36.6,48.2,36.7,48.2,36.7L48.2,36.7z"/>
	<path class="st9" d="M49.4,35.4l-1.5,0c0,0,0,0,0,0c0,0,0,0,0,0l1.5-0.1C49.4,35.3,49.4,35.3,49.4,35.4
		C49.4,35.4,49.4,35.4,49.4,35.4L49.4,35.4z"/>
	<path class="st9" d="M49.7,34.8l-1.5,0c0,0,0,0,0,0c0,0,0,0,0,0l1.5-0.1C49.8,34.7,49.8,34.7,49.7,34.8
		C49.8,34.8,49.8,34.8,49.7,34.8L49.7,34.8z"/>
	<path class="st9" d="M50,34.2l-1.5,0c0,0,0,0,0,0c0,0,0,0,0,0L50,34C50,34,50.1,34.1,50,34.2C50.1,34.1,50,34.2,50,34.2L50,34.2z"
		/>
	<path class="st9" d="M50.2,33.5l-1.5,0c0,0,0,0,0,0c0,0,0,0,0,0l1.5-0.1C50.2,33.4,50.3,33.4,50.2,33.5
		C50.3,33.5,50.2,33.5,50.2,33.5L50.2,33.5z"/>
	<path class="st9" d="M50.3,32.5l-1.5,0c0,0,0,0,0,0c0,0,0,0,0,0l1.5-0.1C50.4,32.4,50.4,32.4,50.3,32.5
		C50.4,32.5,50.4,32.5,50.3,32.5L50.3,32.5z"/>
	<path class="st9" d="M50.3,31.4l-1.5,0.1c0,0,0,0,0,0c0,0,0,0,0,0l1.5-0.2C50.3,31.3,50.4,31.3,50.3,31.4
		C50.4,31.4,50.4,31.4,50.3,31.4C50.3,31.4,50.3,31.4,50.3,31.4"/>
	<path class="st9" d="M50.2,30.4l-1.5,0.4c0,0,0,0,0,0c0,0,0,0,0,0l1.4-0.5C50.2,30.2,50.2,30.2,50.2,30.4
		C50.2,30.3,50.2,30.3,50.2,30.4C50.2,30.4,50.2,30.4,50.2,30.4"/>
	<path class="st9" d="M49.8,29.2l-1.3,0.6c0,0,0,0,0,0c0,0,0,0,0,0l1.3-0.7C49.8,29.1,49.8,29.1,49.8,29.2
		C49.8,29.2,49.8,29.2,49.8,29.2C49.8,29.2,49.8,29.2,49.8,29.2"/>
	<path class="st9" d="M49.1,28.2l-1,0.8c0,0,0,0,0,0c0,0,0,0,0,0L49.1,28.2C49.1,28.1,49.1,28.1,49.1,28.2
		C49.1,28.1,49.1,28.2,49.1,28.2C49.1,28.2,49.1,28.2,49.1,28.2"/>
	<path class="st9" d="M48.1,27.3l-0.7,0.8c0,0,0,0,0,0c0,0,0,0,0,0l0.6-0.9C48,27.2,48.1,27.2,48.1,27.3
		C48.1,27.3,48.1,27.3,48.1,27.3C48.1,27.3,48.1,27.3,48.1,27.3"/>
	<path class="st9" d="M47,26.7l-0.5,0.6c0,0,0,0,0,0c0,0,0,0,0,0l0.4-0.7C46.9,26.6,46.9,26.6,47,26.7C47,26.6,47,26.7,47,26.7
		C47,26.7,47,26.7,47,26.7"/>
	<path class="st9" d="M48.8,36l-1.5,0c0,0,0,0,0,0c0,0,0,0,0,0l1.5-0.1C48.9,35.9,48.9,35.9,48.8,36C48.9,36,48.9,36,48.8,36
		L48.8,36z"/>
	<path class="st10" d="M39.1,32c0-3.1,2.6-5.7,5.7-5.7c3.1,0,5.7,2.6,5.7,5.7c0,3.1-2.6,5.7-5.7,5.7C41.7,37.7,39.1,35.1,39.1,32z"
		/>
</g>
</svg>
