<?xml version="1.0" encoding="utf-8"?>
<!-- Generator: Adobe Illustrator 25.4.1, SVG Export Plug-In . SVG Version: 6.00 Build 0)  -->
<svg version="1.1" id="Capa_1" xmlns="http://www.w3.org/2000/svg" xmlns:xlink="http://www.w3.org/1999/xlink" x="0px" y="0px"
	 viewBox="0 0 13.3 16.1" style="enable-background:new 0 0 13.3 16.1;" xml:space="preserve">
<style type="text/css">
	.st0{fill:#010628;}
</style>
<g>
	<path class="st0" d="M12.4,5.5l-0.5,0.4c-0.5,0.4-0.8,1-1,1.7c-0.3,1,0,2.1,0.6,2.9c0.3,0.4,0.6,0.7,1,0.9l0.3,0.1
		c0,0.1-0.1,0.1-0.1,0.2c-0.4,1.1-1,2.1-1.7,2.9c-0.1,0.2-0.3,0.3-0.5,0.4c-0.5,0.4-1.2,0.5-1.8,0.3l-1-0.3
		c-0.7-0.2-1.5-0.2-2.1,0.1c-0.3,0.1-0.6,0.2-0.9,0.3c-0.5,0.1-1,0-1.4-0.3c-0.4-0.3-0.7-0.6-1-1c-0.7-1-1.2-2.1-1.6-3.2
		C0.5,9.8,0.4,8.7,0.6,7.6c0.1-0.9,0.5-1.8,1.2-2.5C2.4,4.3,3.4,4,4.3,4.1c0.5,0.1,1,0.2,1.5,0.3l0.5,0.1c0.4,0.1,0.8,0.1,1.1-0.1
		c0.4-0.1,0.8-0.2,1.2-0.4c0.7-0.2,1.5-0.2,2.3,0.1c0.5,0.2,1,0.6,1.3,1L12.4,5.5"/>
	<path class="st0" d="M9.4,0.6c0.1,0.2,0.1,0.5,0,0.7c-0.1,1-0.7,2-1.6,2.5c-0.3,0.2-0.6,0.3-1,0.3H6.5C6.4,2.4,7.7,0.9,9.4,0.6"/>
</g>
</svg>
