<?xml version="1.0" encoding="utf-8"?>
<!-- Generator: Adobe Illustrator 25.4.1, SVG Export Plug-In . SVG Version: 6.00 Build 0)  -->
<svg version="1.1" id="Capa_1" xmlns="http://www.w3.org/2000/svg" xmlns:xlink="http://www.w3.org/1999/xlink" x="0px" y="0px"
	 viewBox="0 0 47 12.5" style="enable-background:new 0 0 47 12.5;" xml:space="preserve">
<style type="text/css">
	.st0{fill:#010628;}
</style>
<g>
	<path class="st0" d="M7.8,1.9c0-0.5,0-1,0-1.4c0-0.2,0-0.2,0.2-0.2h10.8c0.2,0,0.2,0,0.2,0.2V12c0,0.2-0.1,0.2-0.2,0.2
		c-3.6,0-7.2,0-10.7,0c-0.2,0-0.2,0-0.2-0.2c0-0.4,0-0.8,0-1.2l0,0c0.5,0,1.1,0,1.6,0c1.8-0.2,3.7-0.7,5.4-1.3
		c0.9-0.3,1.8-0.8,2.6-1.4c0.3-0.2,0.3-0.2,0-0.4c-0.5-0.3-1.1-0.6-1.6-1c-0.1-0.1-0.1,0-0.2,0C15,7.1,14.5,7.6,13.9,8
		c-1.1,0.8-2.3,1.4-3.5,1.7C9.5,9.9,8.7,10,7.8,9.9l0,0v-1l0,0C8.9,9,10,8.8,11,8.3c1.4-0.7,2.6-1.7,3.7-2.9c0.1-0.1,0.1-0.2,0-0.3
		c-0.8-0.9-1.8-1.7-2.9-2.3C10.5,2.1,9.2,1.8,7.8,1.9L7.8,1.9z"/>
	<path class="st0" d="M7.8,10.8C6.4,10.6,5.1,10.1,4,9.2C3.4,8.7,2.8,8.1,2.4,7.5C2,6.9,1.6,6.3,1.4,5.7C1.3,5.6,1.3,5.5,1.2,5.3
		c0-0.1,0-0.1,0.1-0.2c1.5-1.4,3.3-2.4,5.3-3C7,2,7.4,2,7.8,1.9l0,0v0.5c0,0.3,0,0.3,0.3,0.3c0.3,0,0.7,0,1,0.1
		c1.5,0.3,2.8,1.1,3.7,2.3c0.1,0.1,0.1,0.2,0,0.3c-0.5,0.7-1.1,1.3-1.8,1.8c-0.8,0.7-2,1-3.1,0.8c-0.1,0-0.1,0-0.1,0.1v0.7l0,0
		c-1.6-0.3-3-1.6-3.4-3.2c-0.1-0.1-0.1-0.2,0-0.2c0.4-0.4,0.8-0.7,1.3-0.9C6.3,4.2,7,4,7.7,3.9c0.1,0,0.1-0.1,0.1-0.2V3
		c0-0.1,0-0.1-0.2-0.1C7.1,2.9,6.5,3.1,5.9,3.3c-1.1,0.4-2.1,1.1-2.8,2C3,5.4,3,5.5,3.1,5.6c0.2,0.4,0.4,0.9,0.6,1.2
		c0.8,1.6,2.4,2.7,4.2,3l0,0L7.8,10.8L7.8,10.8z M7.8,4.8c0.6,0,1.2,0.4,1.5,0.9l0.4,0.7c0.1,0.1,0.1,0.1,0.2,0l1.3-1
		c0.1-0.1,0.1-0.2,0-0.2c-0.8-0.9-2-1.4-3.2-1.3C7.9,3.8,7.8,3.9,7.8,4C7.8,4.2,7.8,4.5,7.8,4.8C7,4.7,6.3,5,5.8,5.6
		c0,0.1,0,0.1,0,0.2C6,6.5,6.4,7.1,6.9,7.5C7.1,7.7,7.4,7.9,7.8,8L7.8,4.8z"/>
	<path class="st0" d="M32.4,6.2v-2c0-0.1,0-0.2,0.1-0.2c0.8,0,1.6,0,2.4,0c0.9,0,1.7,0.7,1.8,1.7c0.1,0.5,0.1,1-0.1,1.5
		c-0.1,0.6-0.7,1.1-1.4,1.2c-0.7,0-1.4,0-2.1,0c-0.2,0-0.5,0.1-0.7,0s0-0.4,0-0.6L32.4,6.2 M33.7,6.2L33.7,6.2v1.1
		c0,0.1,0,0.2,0.1,0.2c0.3,0,0.6,0,0.8,0c0.4-0.1,0.8-0.4,0.8-0.9c0.1-0.3,0.1-0.5,0-0.8c-0.1-0.3-0.3-0.6-0.7-0.7
		C34.5,5,34.2,5,33.8,5c-0.1,0-0.1,0.1-0.1,0.2L33.7,6.2z"/>
	<path class="st0" d="M20.5,6.2v-2c0-0.1,0-0.2,0.1-0.2c0.9,0,1.8-0.1,2.7,0C24.2,4,25,4.7,25,5.6c0,0.1,0,0.1,0,0.2
		c0,0.8,0,1.6,0,2.5c0,0.1,0,0.2-0.2,0.2c-0.3,0-0.6,0-0.9,0c-0.1,0-0.2,0-0.2-0.2c0-0.6,0-1.2,0-1.8c0-0.3,0-0.5-0.1-0.8
		c-0.1-0.3-0.4-0.6-0.7-0.6c-0.3,0-0.7,0-1,0c-0.2,0-0.1,0.1-0.1,0.2c0,1,0,1.9,0,2.9c0,0.2,0,0.3-0.3,0.3c-0.3,0-0.5,0-0.8,0
		c-0.2,0-0.2,0-0.2-0.2C20.6,7.6,20.6,6.9,20.5,6.2"/>
	<path class="st0" d="M44.2,8.5H43c-0.1,0-0.1,0-0.1-0.1s0-0.1,0-0.1c-0.1-0.2-0.1-0.5-0.2-0.6s-0.4,0-0.6,0h-1.3
		c-0.1,0-0.2,0-0.2,0.1c0,0,0,0,0,0c-0.1,0.2-0.1,0.5-0.2,0.6s-0.4,0-0.6,0h-0.6c0.1-0.2,0.1-0.3,0.2-0.5c0.5-1.2,1-2.5,1.5-3.7
		C40.8,4.1,40.9,4,41,4c0.4,0,0.9,0,1.3,0c0.1,0,0.2,0,0.2,0.1L44.2,8.5C44.2,8.4,44.2,8.4,44.2,8.5 M41.6,4.8L41,6.5
		c-0.2,0.4-0.2,0.4,0.3,0.4h1.1C42.1,6.2,41.9,5.6,41.6,4.8"/>
	<path class="st0" d="M27.6,7.5C27.7,7,27.9,6.5,28,6s0.4-1.2,0.5-1.8c0-0.1,0.1-0.2,0.2-0.2c0.3,0,0.6,0,0.9,0c0.1,0,0.2,0,0.1,0.2
		l-1.3,4.2c0,0.1-0.1,0.1-0.2,0.1h-1.5c-0.1,0-0.2,0-0.2-0.2c-0.4-1.4-0.9-2.8-1.3-4.1c0-0.1,0-0.2,0.1-0.2c0.3,0,0.7,0,1,0
		c0.1,0,0.2,0.1,0.2,0.2c0,0,0,0,0,0c0.3,1,0.5,1.9,0.8,2.9L27.6,7.5L27.6,7.5"/>
	<path class="st0" d="M31.7,6.3c0,0.7,0,1.3,0,2c0,0.2,0,0.2-0.2,0.2s-0.6,0-0.9,0c-0.1,0-0.2,0-0.2-0.1c0-1.4,0-2.8,0-4.2
		c0-0.1,0-0.2,0.1-0.2c0.3,0,0.6,0,1,0c0.2,0,0.2,0,0.2,0.2C31.7,4.9,31.7,5.6,31.7,6.3"/>
	<path class="st0" d="M37.3,6.2c0-0.7,0-1.3,0-2c0-0.2,0-0.2,0.2-0.2c0.3,0,0.6,0,0.9,0c0.1,0,0.2,0,0.2,0.2v4.2
		c0,0.1,0,0.1-0.1,0.1h-1c-0.1,0-0.1-0.1-0.1-0.2L37.3,6.2"/>
	<path class="st0" d="M45.1,7.1c0.4,0,0.7,0.3,0.7,0.7c0,0.4-0.3,0.7-0.7,0.7s-0.7-0.3-0.7-0.7C44.4,7.4,44.7,7.1,45.1,7.1
		 M44.8,8.1L44.8,8.1C44.8,8.1,44.8,8.2,44.8,8.1c0.2,0.2,0.5,0.2,0.7,0c0.2-0.2,0.1-0.6-0.1-0.8c-0.2-0.2-0.5-0.1-0.7,0
		C44.5,7.6,44.5,7.9,44.8,8.1C44.7,8.1,44.7,8.2,44.8,8.1"/>
	<path class="st0" d="M44.8,8.1c0-0.2,0-0.4,0-0.5s0-0.2,0.1-0.2s0.3-0.1,0.4,0.1c0.1,0.1,0.1,0.2,0,0.2c0,0,0,0,0,0
		c-0.1,0.1,0,0.2,0.1,0.3s0.1,0.1,0,0.1c0,0-0.1,0-0.1,0c0,0,0-0.1,0-0.1c0-0.1,0-0.1-0.1-0.1S45,8,45,8S44.9,8.1,44.8,8.1L44.8,8.1
		 M45.2,7.6c0,0-0.1-0.1-0.1-0.1c0,0-0.1,0-0.1,0.1c0,0,0,0,0,0c0,0,0,0.1,0.1,0.1S45.2,7.7,45.2,7.6"/>
</g>
</svg>
