<?xml version="1.0" encoding="utf-8"?>
<!-- Generator: Adobe Illustrator 25.4.1, SVG Export Plug-In . SVG Version: 6.00 Build 0)  -->
<svg version="1.1" id="Capa_1" xmlns="http://www.w3.org/2000/svg" xmlns:xlink="http://www.w3.org/1999/xlink" x="0px" y="0px"
	 viewBox="0 0 20 25" style="enable-background:new 0 0 20 25;" xml:space="preserve">
<style type="text/css">
	.st0{fill:#FFFFFF;}
</style>
<path class="st0" d="M10.1,24.5H10c-0.1-0.1-0.1-0.2-0.2-0.4c-2.3-3.2-4.6-6.5-6.3-10.1C2.4,12,1.5,9.8,2,7.4
	c0.6-3.2,2.1-5.5,5.3-6.5c0.6-0.2,1.2-0.3,1.8-0.4h1.8c0.2,0,0.3,0.1,0.5,0.1C14,1,16,2.2,17.2,4.7c1.3,2.6,1.2,5.3,0,7.9
	c-1.3,3-3.1,5.9-5,8.6C11.6,22.3,10.8,23.4,10.1,24.5 M10,12c2.4,0,4.4-1.9,4.4-4.3c0-2.4-1.9-4.4-4.3-4.4c-2.4,0-4.4,1.9-4.4,4.3
	C5.6,10,7.6,11.9,10,12"/>
</svg>
