<?xml version="1.0" encoding="utf-8"?>
<!-- Generator: Adobe Illustrator 25.4.1, SVG Export Plug-In . SVG Version: 6.00 Build 0)  -->
<svg version="1.1" id="Capa_1" xmlns="http://www.w3.org/2000/svg" xmlns:xlink="http://www.w3.org/1999/xlink" x="0px" y="0px"
	 viewBox="0 0 76.9 8.6" style="enable-background:new 0 0 76.9 8.6;" xml:space="preserve">
<style type="text/css">
	.st0{fill:#010628;}
</style>
<g>
	<path class="st0" d="M36.6,3.5h8.8v4.6H34c0.7-0.9,1.8-1.5,3-1.5c2.1,0,4.2,0,6.4,0V5.1h-8.8c0-1.5,0-2.8,0-4.2
		c0-0.1,0.3-0.3,0.4-0.3c3.4,0,6.9,0,10.3,0C45,1.5,44,2.2,43,2.1c-1.8,0-3.6,0-5.4,0h-0.9L36.6,3.5z"/>
	<path class="st0" d="M7.6,8.1h-2V2.2C4.1,1.8,2.4,2.6,1,1.5C0.7,1.2,0.5,0.9,0.2,0.6h12.5c-0.3,0.9-1.2,1.6-2.2,1.5
		c-0.9,0-1.9,0-3,0L7.6,8.1L7.6,8.1z"/>
	<path class="st0" d="M52.9,0.5v6h8.5c-0.1,0.9-0.8,1.5-1.7,1.6c-2.9,0-5.8,0-8.7,0c0-0.3,0-0.6,0-0.9c0-1.9,0-3.8,0-5.8
		c0-0.8,0.2-1,1-0.9c0.3,0,0.7,0,1,0"/>
	<path class="st0" d="M76.6,3.6c0,1.4,0,2.7,0,4c-0.1,0.2-0.3,0.4-0.5,0.5c-0.5,0-0.9,0-1.4,0v-3h-7v3h-1.9V3.7L76.6,3.6z"/>
	<path class="st0" d="M65.4,0.6h11.3c-0.2,0.9-1.1,1.5-2,1.5c-2.4,0-4.8,0.1-7.3,0C66.5,2,65.7,1.4,65.4,0.6"/>
	<path class="st0" d="M29.1,3.6c-0.4,0.9-1.2,1.5-2.1,1.5c-2.4,0-4.7,0-7.1,0c-1,0-1.8-0.6-2.2-1.5L29.1,3.6z"/>
	<path class="st0" d="M17.7,0.6h11.2c-0.2,0.9-1.1,1.5-2,1.5c-2.4,0-4.8,0-7.2,0C18.8,2,18,1.4,17.7,0.6"/>
	<path class="st0" d="M17.7,6.6h11.3c-0.2,0.9-1,1.5-1.9,1.5c-2.5,0.1-4.9,0.1-7.4,0C18.7,8.1,17.9,7.5,17.7,6.6"/>
</g>
</svg>
