<?xml version="1.0" encoding="utf-8"?>
<!-- Generator: Adobe Illustrator 25.4.1, SVG Export Plug-In . SVG Version: 6.00 Build 0)  -->
<svg version="1.1" id="Layer_1" xmlns="http://www.w3.org/2000/svg" xmlns:xlink="http://www.w3.org/1999/xlink" x="0px" y="0px"
	 viewBox="0 0 100 100" style="enable-background:new 0 0 100 100;" xml:space="preserve">
<style type="text/css">
	.st0{fill:#F93DF9;}
</style>
<path class="st0" d="M88.9,27.3c-2.5-2.2-5.9-3.3-9.3-2.9C74.8,13,63.5,5,50.4,5h-1.8c-13.2,0-24.4,8-29.2,19.5
	c-3.3-0.3-6.7,0.7-9.2,2.9c-2.6,2.3-4.1,5.6-4.1,9.1v21.6c0,3.5,1.5,6.8,4.1,9.1c2.1,1.8,4.7,2.9,7.5,3
	c3.1,14.3,15.7,24.9,30.9,24.9h1.8c15.2,0,27.8-10.7,30.9-24.9c2.8-0.1,5.4-1.1,7.5-3c2.6-2.3,4.1-5.6,4.1-9.1V36.4
	C93,32.9,91.5,29.6,88.9,27.3 M86.5,58.1c0,1.6-0.7,3.1-1.9,4.2c-1.2,1.1-2.8,1.6-4.4,1.3l-29.1-3.8c-0.5-0.1-1-0.1-1.5-0.1
	c-0.5,0-1,0-1.5,0.1l-29,3.8c-1.6,0.2-3.2-0.3-4.4-1.3c-1.2-1.1-1.9-2.6-1.9-4.2V36.5c0-1.6,0.7-3.1,1.9-4.2
	c1.2-1.1,2.8-1.6,4.4-1.3l27.6,3.7c1,0.1,2.1,0.1,3.1,0l30.5-3.8c1.6-0.2,3.2,0.3,4.4,1.4c1.2,1.1,1.9,2.6,1.9,4.2V58.1z"/>
</svg>
