<svg id="Capa_1" data-name="Capa 1" xmlns="http://www.w3.org/2000/svg" viewBox="0 0 66.82 14.4"><defs><style>.cls-1{fill:#fff;}</style></defs><path class="cls-1" d="M13.47,11a.09.09,0,0,0-.07,0c-.09,0-.19,0-.27.11l-.08,0H13l-.71.23a.1.1,0,0,0-.07,0l-.55.11c-.28.06-.55.09-.82.14-.06,0-.13,0-.18,0a.31.31,0,0,0-.19,0H10a.48.48,0,0,0-.17,0h-.5a.31.31,0,0,0-.19,0,.69.69,0,0,0-.25,0,.11.11,0,0,0-.1,0,.11.11,0,0,0-.1,0c-.17,0-.35-.06-.52-.1l-.62-.13-.07,0a1.09,1.09,0,0,0-.31-.08l0,0h0a.2.2,0,0,0-.11,0,.37.37,0,0,0-.2-.07.32.32,0,0,0-.18-.06l-.69-.31c-.06,0-.11,0-.15,0l0,0h0s0,0,0,0l0,0c-.2.15-.2.16,0,.26l.07,0a1.66,1.66,0,0,0,.47.26l.09,0a2,2,0,0,0,.39.19c.1,0,.11,0,.06.14l-.17.33-.36.6,0,0a.76.76,0,0,0-.11.14c-.13.2-.13.2-.34.13l-.08,0a.33.33,0,0,0-.14,0,.63.63,0,0,0-.27-.1h0l-.08,0c-.27-.13-.56-.25-.84-.36h0a.91.91,0,0,0-.26-.13h0a.91.91,0,0,0-.26-.13h0l-.57-.33-.76-.48h0a.27.27,0,0,0-.08-.07c-.23-.13-.44-.28-.41-.6,0-.1,0-.21,0-.3a.37.37,0,0,0,0-.18V9.61c0-.24,0-.48,0-.72a.82.82,0,0,0,0-.31.65.65,0,0,0,0-.24V8.21a3.56,3.56,0,0,0,.06-.44v-.1a.1.1,0,0,0,0-.09.26.26,0,0,0,0-.15.15.15,0,0,0,0-.13V7.23A.82.82,0,0,0,2.21,7l0-.07s0,0,0,0a.21.21,0,0,0,0-.12,3,3,0,0,0,.1-.43h0a.25.25,0,0,0,0-.12,1.14,1.14,0,0,0,.11-.37h0a.11.11,0,0,0,0-.08.75.75,0,0,0,.09-.3.18.18,0,0,0,0-.1,2.3,2.3,0,0,0,.12-.34.14.14,0,0,0,0-.07.32.32,0,0,0,.07-.19.07.07,0,0,0,0-.06,1.54,1.54,0,0,0,.15-.35l0-.07A.37.37,0,0,0,3.16,4a0,0,0,0,0,0,0l.05-.05c.18-.39.38-.78.59-1.16a3.7,3.7,0,0,0,.29-.51h0A.58.58,0,0,0,4.26,2h0a1,1,0,0,1,.32-.25.05.05,0,0,0,.07,0l.66-.25a1.77,1.77,0,0,0,.38-.15h0a.53.53,0,0,0,.2-.07.24.24,0,0,0,.16-.05,1.11,1.11,0,0,0,.31-.09s0,0,.06,0A4.18,4.18,0,0,0,7,.93a.2.2,0,0,0,.11,0h.06A1.21,1.21,0,0,0,7.54.83h.11a0,0,0,0,0,0,0s0,0,0,0a3.48,3.48,0,0,0,.22.43h0a1.94,1.94,0,0,0,.13.3.11.11,0,0,0,.13.07,5,5,0,0,0,.54-.07c.09,0,.18,0,.27,0s.42,0,.63,0a5,5,0,0,1,.55,0c.23,0,.46,0,.7,0a.5.5,0,0,0,.24,0,.32.32,0,0,0,.14,0h.09l.29,0a.12.12,0,0,0,.15-.09c.05-.13.13-.25.17-.38h0a1.3,1.3,0,0,0,.14-.26c0-.09.1-.12.19-.1l.38.08a.17.17,0,0,0,.1,0,2.7,2.7,0,0,0,.47.12.08.08,0,0,0,.07,0c.13.05.27.08.4.12a.08.08,0,0,0,.07,0,1.42,1.42,0,0,0,.33.11.11.11,0,0,0,.07,0c.43.17.85.33,1.27.52h0a1.62,1.62,0,0,0,.25.39l0,0s0,0,0,0h0s0,.05,0,.07A17.14,17.14,0,0,1,16.6,4a1.34,1.34,0,0,0,.13.27.2.2,0,0,0,0,.08h0a.47.47,0,0,0,.09.22l0,0a6,6,0,0,0,.26.71.08.08,0,0,0,0,.07s0,0,0,0h0a1,1,0,0,0,.11.34s0,0,0,.06a.38.38,0,0,0,.05.21l0,.08h0a.15.15,0,0,0,0,.13.12.12,0,0,0,0,.08,1.17,1.17,0,0,0,.08.36.2.2,0,0,0,0,.11.07.07,0,0,0,0,.06c0,.06,0,.11,0,.17a.36.36,0,0,0,0,.2.09.09,0,0,0,0,.07.2.2,0,0,0,0,.13v.1c0,.08,0,.17,0,.25a4.17,4.17,0,0,0,.08.49.23.23,0,0,0,0,.16.39.39,0,0,0,0,.24,1.1,1.1,0,0,0,0,.36c0,.38,0,.77,0,1.15a1.13,1.13,0,0,0,0,.32.75.75,0,0,0,0,.3.2.2,0,0,0,0,.13.52.52,0,0,1-.14.16,2,2,0,0,0-.33.25h-.05c-.21.15-.43.28-.65.42a4.6,4.6,0,0,0-.6.37h0a1.11,1.11,0,0,0-.29.14h0l-.21.09-.64.3h0a.94.94,0,0,0-.23.1.11.11,0,0,0-.08,0h0a.87.87,0,0,0-.31.1l-.06,0a.79.79,0,0,0-.22.06.17.17,0,0,1-.19,0,0,0,0,0,0,0,0l-.38-.6A3.45,3.45,0,0,0,13,12a.09.09,0,0,0,0-.07c0-.08-.09-.14-.08-.23l.08,0a.67.67,0,0,0,.23-.1h0a3.77,3.77,0,0,0,.85-.43h.05c.1-.06.1-.08,0-.17a.34.34,0,0,0-.51-.07S13.52,10.93,13.47,11ZM7.26,6A1.51,1.51,0,0,0,7,6,1.43,1.43,0,0,0,6,6.68,1.71,1.71,0,0,0,5.85,8a1.53,1.53,0,0,0,.5.89,1.26,1.26,0,0,0,.83.36,1.33,1.33,0,0,0,1.26-.74,1.72,1.72,0,0,0,0-1.86A1.3,1.3,0,0,0,7.26,6Zm3.82,1.51a1.75,1.75,0,0,0,.55,1.4,1.29,1.29,0,0,0,1.85,0A1.69,1.69,0,0,0,14,7.57a1.66,1.66,0,0,0-.58-1.31,1.32,1.32,0,0,0-1.49-.16A1.62,1.62,0,0,0,11.08,7.46Z"/><path class="cls-1" d="M28.62,4.28l.27.12a6.44,6.44,0,0,1,.8.57h0a1.12,1.12,0,0,0,.17.21s0,0,0,0l.27.43,0,.11a3.71,3.71,0,0,1,.24.94,1.22,1.22,0,0,0,0,.33v.34s0,0,0,0a.37.37,0,0,0,0,.18,1.53,1.53,0,0,0-.08.37.08.08,0,0,0,0,.07,3.24,3.24,0,0,0-.13.33,0,0,0,0,0,0,0,.38.38,0,0,0-.09.18h0a1.87,1.87,0,0,0-.2.29,3.32,3.32,0,0,1-.72.68h0a7.74,7.74,0,0,1-.7.37l-.08,0h0A1.12,1.12,0,0,0,28,10c-.09,0-.15.05-.23.06a1.62,1.62,0,0,0-.44.07H27.2l-.37,0a.12.12,0,0,0-.1,0H23.5a.33.33,0,0,0-.17,0s0-.11,0-.17V4c.06,0,.14,0,.21,0,1.3,0,2.6,0,3.89,0h.13a.37.37,0,0,0,.18,0h0a.36.36,0,0,0,.18,0,1.47,1.47,0,0,0,.3.08.27.27,0,0,0,.15,0A.82.82,0,0,0,28.62,4.28ZM25.46,7.07V8.48c0,.15,0,.16.15.16h.48c.24,0,.47,0,.71,0a1.79,1.79,0,0,0,.75-.28,1.43,1.43,0,0,0,.56-.89,2,2,0,0,0,0-.6,1.34,1.34,0,0,0-1.08-1.27,8.71,8.71,0,0,0-1.53-.06.06.06,0,0,0-.07.07V7.07Z"/><path class="cls-1" d="M61,4.77h.43a3.17,3.17,0,0,1,.81.18h0a.67.67,0,0,0,.15.06.14.14,0,0,0,.1.07.09.09,0,0,0,.07,0,.81.81,0,0,0,.09.1,1.46,1.46,0,0,1,.4.46c.08.12.15.25.23.4a.9.9,0,0,0,0-.32c0-.59,0-1.18,0-1.76,0-.06-.08-.12,0-.17s.13,0,.2,0h1.85c.06,0,.09,0,.08.09v6.19c0,.13,0,.13-.13.13H63.49c-.14,0-.14,0-.14-.14V9.42a.57.57,0,0,0,0-.31l-.23.41h0l-.37.39,0,0c-.06,0-.12.05-.15.11h0c-.2.09-.39.18-.59.25a.13.13,0,0,0-.12,0h-.09a3,3,0,0,1-1.11,0h0a.1.1,0,0,0-.09,0,.11.11,0,0,0-.08,0,4.52,4.52,0,0,1-.5-.23h0c-.11-.09-.22-.19-.34-.27l-.13-.14c-.13-.18-.27-.37-.38-.56S59,9,59,9s-.07-.25-.12-.37a2.54,2.54,0,0,0-.1-.37.63.63,0,0,0,0-.24.09.09,0,0,0,0-.09V7.33a.17.17,0,0,0,0-.12.37.37,0,0,0,0-.18l.1-.47h0v0a.11.11,0,0,0,0-.07,4.73,4.73,0,0,1,.36-.71h0a4.43,4.43,0,0,1,.48-.49s0,0,0,0l0,0h0a3.13,3.13,0,0,1,.72-.33h.07C60.8,4.81,60.92,4.8,61,4.77Zm1.14,1.65H62a1.07,1.07,0,0,0-.9.55,1.21,1.21,0,0,0-.16.69,1.1,1.1,0,0,0,.4.81,1.23,1.23,0,0,0,1,.27,1.16,1.16,0,0,0,.87-.53,1.07,1.07,0,0,0,.17-.54,1.1,1.1,0,0,0-.28-.9A1.07,1.07,0,0,0,62.17,6.42Z"/><path class="cls-1" d="M53.05,6.93a.3.3,0,0,0,0,.13.23.23,0,0,0,0,.14v.67a.09.09,0,0,0,0,.1s0,.11,0,.17a.82.82,0,0,0-.07.3h0c-.08.07-.06.19-.12.27a.19.19,0,0,0,0,.1c-.1.15-.18.31-.3.46a2.41,2.41,0,0,0-.21.24h0c-.15.11-.29.24-.45.34a1.31,1.31,0,0,0-.28.17l-.07,0-.45.16a1.4,1.4,0,0,0-.29.09,1.88,1.88,0,0,0-.33,0,5.44,5.44,0,0,0-.58.05h-.23a5.7,5.7,0,0,0-.58-.06,2.38,2.38,0,0,0-.26-.05,1.7,1.7,0,0,0-.37-.1.11.11,0,0,0-.07,0,3.92,3.92,0,0,1-.58-.29l-.3-.18h0L47,9.25h0l-.36-.62a0,0,0,0,0,0,0,.68.68,0,0,0-.1-.27.51.51,0,0,0,0-.17,2.79,2.79,0,0,0-.07-.4v-.4a1,1,0,0,0,0-.17,2.49,2.49,0,0,1,1.21-1.91A5.84,5.84,0,0,1,48.3,5a.11.11,0,0,0,.08,0h0a2.92,2.92,0,0,0,.4-.1.32.32,0,0,0,.14,0H49l.48,0h.64a0,0,0,0,0,.06,0h0l.43.06a.49.49,0,0,0,.21,0,.74.74,0,0,0,.29.08h0a1.2,1.2,0,0,0,.31.13h0l.27.14a.2.2,0,0,0,.13.06,1.05,1.05,0,0,0,.27.2s0,0,0,0a1.85,1.85,0,0,0,.14.14,4.43,4.43,0,0,1,.43.54l0,.08h0l0,.05a1.08,1.08,0,0,0,.1.27.11.11,0,0,0,0,.08h0l0,.05s0,0,0,.06a.08.08,0,0,0,0,.07A.09.09,0,0,0,53.05,6.93ZM49.82,8.77a1.07,1.07,0,0,0,1-.52,1.26,1.26,0,0,0,.15-1,1,1,0,0,0-.85-.83,1.68,1.68,0,0,0-.67,0,1.06,1.06,0,0,0-.74.58,1.33,1.33,0,0,0-.06,1,1,1,0,0,0,.23.42A1.18,1.18,0,0,0,49.82,8.77Z"/><path class="cls-1" d="M36.53,8.17a.14.14,0,0,0-.11,0,.09.09,0,0,0-.1,0h-.06A1.43,1.43,0,0,0,35.92,8h-.07a.62.62,0,0,0-.23-.07.52.52,0,0,0-.21-.07.57.57,0,0,0-.19-.1,1.5,1.5,0,0,1-.64-.53L34.44,7a.12.12,0,0,0,0-.1,1.54,1.54,0,0,0,0-.3v-.3c.05-.13.07-.26.13-.38a1.52,1.52,0,0,1,.41-.53s0,0,0,0l.33-.21a.09.09,0,0,0,.07,0A.46.46,0,0,0,35.51,5a.24.24,0,0,0,.14,0,.71.71,0,0,0,.24-.06,7,7,0,0,1,.9-.14h.37a8.46,8.46,0,0,1,.88.08h.07l.47.13h.06l.5.2c.18.07.32.18.28.4s0,.63,0,.94c0,0,0,.05,0,.07s0,.09-.1,0l-.19-.08s0,0-.07,0a.49.49,0,0,0-.21-.08l-.13-.05a1,1,0,0,0-.3-.09.64.64,0,0,0-.24,0,2.81,2.81,0,0,0-.71-.08h-.23c-.1,0-.21,0-.31,0a.57.57,0,0,0-.25.08.21.21,0,0,0-.14.19.23.23,0,0,0,.14.21,1.79,1.79,0,0,0,.56.15h0a.32.32,0,0,0,.14,0h0a.23.23,0,0,0,.18,0,1.4,1.4,0,0,0,.34.08l.6.13a.37.37,0,0,0,.2.07,3.65,3.65,0,0,0,.34.18s.05.05.09.05a1.41,1.41,0,0,1,.45.63l0,.05v.09l0,.21v.36l-.06.37,0,.1a1,1,0,0,0-.08.18h0s-.05,0-.06.08a1.86,1.86,0,0,1-.67.57c-.19.09-.39.15-.58.23l-.08,0h0a.27.27,0,0,0-.15,0s0,0,0,0-.12,0-.17,0-.33,0-.5,0a2.46,2.46,0,0,1-.47,0l-.58-.05h-.07s0,0,0,0a.4.4,0,0,0-.15,0h0a.2.2,0,0,0-.11,0l-.27-.06h-.06a.07.07,0,0,0-.07,0,.57.57,0,0,0-.24-.08A.35.35,0,0,0,35,10a.67.67,0,0,0-.23-.1.22.22,0,0,0-.13-.06.29.29,0,0,0-.14-.08h0l-.09-.06a.21.21,0,0,1-.12-.18c0-.38,0-.77,0-1.15,0-.06,0-.13,0-.17a.39.39,0,0,0,.17.11h0a.45.45,0,0,0,.21.12h0a1.78,1.78,0,0,0,.57.24s.07,0,.11,0,0,0,0,0a.09.09,0,0,0,.07,0,1,1,0,0,0,.33.08.22.22,0,0,0,.11,0,.19.19,0,0,0,.08,0,5.38,5.38,0,0,0,.69.07,1.41,1.41,0,0,0,.5-.07c.09,0,.18-.09.2-.2a.14.14,0,0,0,0-.14.27.27,0,0,0-.16-.2.57.57,0,0,0-.26-.08l-.06,0a.66.66,0,0,0-.31-.06.2.2,0,0,1-.13,0Z"/><path class="cls-1" d="M45,5a.19.19,0,0,0,.12,0s.1,0,.15.07l.4.2a.21.21,0,0,1,.11.15V6.89c-.05,0-.08,0-.12,0A2.18,2.18,0,0,0,45,6.58a2.73,2.73,0,0,0-.8-.13,2.91,2.91,0,0,0-.83.11,1.43,1.43,0,0,0-.67.39.87.87,0,0,0-.18,1,.57.57,0,0,0,.19.29,1.22,1.22,0,0,0,.7.38.1.1,0,0,0,.07,0,1.09,1.09,0,0,0,.4.07,2.83,2.83,0,0,0,.82,0,.15.15,0,0,0,.11,0h0a.23.23,0,0,0,.11,0H45a.82.82,0,0,0,.3-.1.16.16,0,0,0,.11-.05.29.29,0,0,0,.16-.07.08.08,0,0,0,.07,0s.09-.05.14-.05v1.4c0,.05,0,.1,0,.15a.14.14,0,0,0-.11.07.31.31,0,0,0-.13.06.07.07,0,0,0-.06,0,1.21,1.21,0,0,0-.2.09,1,1,0,0,0-.24.09.31.31,0,0,0-.16.06.84.84,0,0,0-.31.08.22.22,0,0,0-.14,0s0,0,0,0h-.06l-.75.06h-.16l-.61-.06h-.1s0,0,0,0a.93.93,0,0,0-.24-.05.83.83,0,0,0-.27-.07.13.13,0,0,0-.1,0c-.24-.11-.48-.23-.71-.36a0,0,0,0,0,0,0,4,4,0,0,1-.59-.58c-.11-.17-.19-.35-.3-.52s0-.07,0-.1l-.09-.31,0-.23,0-.27a.28.28,0,0,0,0-.13l0-.54a.86.86,0,0,0,0-.27,1.43,1.43,0,0,0,.09-.27l0-.06L40.73,6h0a3.68,3.68,0,0,1,.32-.37,3.17,3.17,0,0,1,1-.63,2.47,2.47,0,0,0,.41-.14l.13,0a.06.06,0,0,0,.07,0,.2.2,0,0,0,.11,0s0,0,0,0h0a2.42,2.42,0,0,0,.47,0h.74a7,7,0,0,1,.91.17H45Z"/><path class="cls-1" d="M57.09,6.83h0a1.17,1.17,0,0,0-.76.55,1.69,1.69,0,0,0-.22.69,1.36,1.36,0,0,0,0,.4V10c0,.16,0,.16-.16.16H54.07c-.14,0-.14,0-.14-.14V5.14c0-.13,0-.13.14-.14h1.61a1,1,0,0,0,.25,0s0,.09.07.13a5.48,5.48,0,0,0,0,.81,4.14,4.14,0,0,0,0,.61s0,0,0,.07c.06-.26.13-.49.2-.72l0-.09,0,0A1.52,1.52,0,0,1,57,5l.06,0h0a2.38,2.38,0,0,1,.53,0c.15,0,.28.06.42.07a.07.07,0,0,0,.06,0l0,0a.21.21,0,0,1,.16.25V6.82s0,.1,0,.14a1.28,1.28,0,0,0-.43-.14,1.16,1.16,0,0,0-.26,0,.24.24,0,0,0-.22,0h0a.72.72,0,0,0-.25,0S57.11,6.82,57.09,6.83Z"/><path class="cls-1" d="M31.44,6.31a.15.15,0,0,0,.11,0,2.51,2.51,0,0,0,1,.1A.92.92,0,0,0,33,6.35a.11.11,0,0,0,.08,0h0l.1,0c.05,0,.1-.06.15,0s0,.09,0,.13v3.5c0,.05,0,.09,0,.14s0,.17-.18.17H32.09c-.23,0-.45,0-.68,0h-.07c-.06,0-.11,0-.11-.11a1.47,1.47,0,0,0,0-.21V6.46c0-.06,0-.13,0-.19S31.38,6.32,31.44,6.31Z"/><path class="cls-1" d="M33.34,4.41v.37s0,0,0,0a.35.35,0,0,0-.06.14,1.21,1.21,0,0,1-.54.51s0,0-.06,0a1.42,1.42,0,0,1-.71,0,.19.19,0,0,0-.1,0A1.53,1.53,0,0,1,31.34,5a.11.11,0,0,0,0-.07l0-.11a.88.88,0,0,1,.23-.92,2.13,2.13,0,0,1,.34-.25.56.56,0,0,0,.21-.06h.49a.68.68,0,0,0,.2.07,2,2,0,0,1,.43.33h0C33.23,4.14,33.28,4.27,33.34,4.41Z"/></svg>