<svg id="Capa_1" data-name="Capa 1" xmlns="http://www.w3.org/2000/svg" viewBox="0 0 55.13 18.23"><defs><style>.cls-1{fill:#fff;}</style></defs><path class="cls-1" d="M7.23,1.43a1.15,1.15,0,0,1,.59.27.57.57,0,0,0,.43.17,1.36,1.36,0,0,1,1,.6,2.76,2.76,0,0,1,.35.71c0,.07.05.09.12.07s.26-.08.4-.12a.32.32,0,0,1,.33.09c.27.28.56.55.83.82a.21.21,0,0,0,.16.07h.91c.18,0,.21,0,.24.22.08.58.17,1.15.26,1.73l.21,1.45c.07.49.14,1,.22,1.46l.21,1.45c.07.48.14,1,.22,1.45s.12.87.19,1.3l.21,1.47c0,.11,0,.23.06.35s0,.1-.08.12l-1.51.37L10.34,16A.65.65,0,0,1,10,16l-3-.52L4,15l-2.55-.44c-.17,0-.18,0-.15-.21L1.58,12l.27-2.15c.11-.81.21-1.63.32-2.44.07-.54.15-1.07.21-1.6a.45.45,0,0,1,.35-.44c.47-.13.92-.28,1.38-.42a.2.2,0,0,0,.16-.18A5.34,5.34,0,0,1,5.7,2.05a2,2,0,0,1,1.16-.6,0,0,0,0,0,0,0ZM5.66,13.52h.2a2,2,0,0,0,1.62-.94,2.4,2.4,0,0,0,.34-1.13,2.09,2.09,0,0,0-.69-1.76A7.26,7.26,0,0,0,6.22,9a1.81,1.81,0,0,1-.41-.32.52.52,0,0,1-.14-.49.7.7,0,0,1,.59-.54,2.28,2.28,0,0,1,1.29.12c.08,0,.1,0,.12-.07.12-.46.25-.92.37-1.38.06-.23.06-.23-.17-.29a3.47,3.47,0,0,0-1.57,0A2.64,2.64,0,0,0,4.14,8.81a1.82,1.82,0,0,0,.67,1.38c.24.2.52.37.76.57a1.07,1.07,0,0,1,.34.5A.58.58,0,0,1,5.5,12a1,1,0,0,1-.38,0A3,3,0,0,1,4,11.52c-.05,0-.08,0-.09,0-.08.34-.16.69-.25,1a.26.26,0,0,0,.11.31A3,3,0,0,0,5.66,13.52ZM7.45,2a.78.78,0,0,0-.52-.1,1.55,1.55,0,0,0-.88.47A5,5,0,0,0,4.76,4.7c0,.07,0,.08.07.06l1-.33A.16.16,0,0,0,6,4.29,3.47,3.47,0,0,1,7.45,2ZM8,3.67c0-.12,0-.23,0-.33a3.21,3.21,0,0,0-.18-.87c0-.06-.06-.07-.12,0a2.08,2.08,0,0,0-.34.24,3.4,3.4,0,0,0-.83,1.48c0,.09,0,.07.08.06l1.29-.4C8,3.78,8,3.75,8,3.67Zm1.15-.31v0a2.11,2.11,0,0,0-.33-.63,1,1,0,0,0-.47-.35s0,0-.06,0,0,0,0,.06a3.54,3.54,0,0,1,.11.44,5.05,5.05,0,0,1,.07.68s0,.1.07.07l.57-.18S9.17,3.42,9.16,3.36Z"/><path class="cls-1" d="M47.24,16.3c-.15-.47-.3-.94-.46-1.41,0-.07,0-.1.07-.13A3.4,3.4,0,0,0,48.4,13.7a3.13,3.13,0,0,0,.29-.42.44.44,0,0,0,.06-.35c-.25-1.34-.5-2.68-.74-4-.11-.55-.21-1.11-.31-1.66,0,0,0-.06,0-.06h1.74s.06,0,.07.06c.09.94.19,1.87.28,2.81L50,11.49s0-.06,0-.08c.47-1.4,1-2.78,1.54-4.15,0,0,0-.07.08-.07h1.79l-.11.23c-.72,1.54-1.43,3.09-2.17,4.64a13.77,13.77,0,0,1-1.58,2.6,4.57,4.57,0,0,1-2,1.51c-.11.05-.23.08-.34.12Z"/><path class="cls-1" d="M36.12,8.08a4.53,4.53,0,0,1,.49-.49,2.09,2.09,0,0,1,1.77-.51,1.61,1.61,0,0,1,1.26,1.1,3.19,3.19,0,0,1,.19,1.33,5,5,0,0,1-.71,2.39,3.33,3.33,0,0,1-1.78,1.52,2.65,2.65,0,0,1-1.8,0l-.08,0c-.14-.07-.14-.07-.17.09-.15.79-.3,1.58-.44,2.36,0,.09,0,.11-.13.11H33.16c-.09,0-.1,0-.08-.1.31-1.66.63-3.33,1-5,.16-.87.34-1.73.47-2.61,0-.34.1-.69.14-1,0-.07,0-.08.09-.08h1.39c.07,0,.1,0,.09.09s-.05.44-.08.66C36.13,8,36.12,8,36.12,8.08ZM38,9.57a1.51,1.51,0,0,0-.15-.73.59.59,0,0,0-.5-.33,1,1,0,0,0-.83.4A2.56,2.56,0,0,0,36,10c-.16.64-.24,1.3-.37,1.94,0,.05,0,.07,0,.09a1.05,1.05,0,0,0,.84.2,1.21,1.21,0,0,0,.75-.5A3.88,3.88,0,0,0,38,9.57Z"/><path class="cls-1" d="M23.74,8c.06,0,.07,0,.1-.07a2.41,2.41,0,0,1,1.44-.83,1.89,1.89,0,0,1,1,.08,1.33,1.33,0,0,1,.8,1.09A3.49,3.49,0,0,1,27,9.53c-.23,1.29-.48,2.57-.72,3.85,0,0,0,.08-.07.08H24.5c.14-.74.28-1.48.41-2.21.11-.57.24-1.13.31-1.7a2.9,2.9,0,0,0,0-.51.53.53,0,0,0-.74-.52,1.26,1.26,0,0,0-.65.51,3.28,3.28,0,0,0-.55,1.37c-.2,1-.39,2-.58,3,0,0,0,.07-.08.07-.54,0-1.09,0-1.63,0-.06,0-.07,0-.06-.08.24-1.21.47-2.43.7-3.64s.47-2.48.7-3.72c.1-.51.2-1,.29-1.52,0-.07,0-.08.1-.08h1.6c.08,0,.09,0,.07.09-.22,1.14-.43,2.28-.65,3.41A.09.09,0,0,1,23.74,8Z"/><path class="cls-1" d="M30,13.58a2.44,2.44,0,0,1-1.6-.52,2.17,2.17,0,0,1-.79-1.44,4.19,4.19,0,0,1,1.27-3.7,3,3,0,0,1,3-.76A2,2,0,0,1,33.41,8.9,4.2,4.2,0,0,1,33,11.68a3.37,3.37,0,0,1-1.86,1.7A3.09,3.09,0,0,1,30,13.58ZM29.36,11a1.73,1.73,0,0,0,.07.6.79.79,0,0,0,.55.58.88.88,0,0,0,.94-.33,2.82,2.82,0,0,0,.56-1.12,4.07,4.07,0,0,0,.18-1.51,1,1,0,0,0-.3-.64.82.82,0,0,0-1.07,0,1.88,1.88,0,0,0-.47.58A4.16,4.16,0,0,0,29.36,11Z"/><path class="cls-1" d="M43.19,13.45c.3-1.61.61-3.22.91-4.82,0-.12,0-.12-.1-.12h-.61c-.06,0-.09,0-.07-.08.07-.38.15-.77.22-1.15,0-.08,0-.11.13-.11h.63c.07,0,.09,0,.1-.09a4.29,4.29,0,0,1,.47-1.47,2.51,2.51,0,0,1,2.36-1.32,2.57,2.57,0,0,1,.83.12c.07,0,.09,0,.07.12l-.3,1.2c0,.07,0,.1-.12.07a1.42,1.42,0,0,0-.68,0,1,1,0,0,0-.63.51,2.54,2.54,0,0,0-.26.85c0,.07,0,0,.07,0h1c.08,0,.09,0,.08.09l-.21,1.16c0,.07,0,.09-.11.09H46c-.08,0-.11,0-.13.09-.2,1.09-.41,2.19-.61,3.28-.1.5-.2,1-.29,1.51,0,0,0,.07-.06.07Z"/><path class="cls-1" d="M16.54,11.88a3.88,3.88,0,0,0,1.09.36,1.58,1.58,0,0,0,.65,0,.59.59,0,0,0,.31-1,1.73,1.73,0,0,0-.48-.36,4.14,4.14,0,0,1-.76-.56A1.73,1.73,0,0,1,17.28,8a2.35,2.35,0,0,1,1.44-.82,3.88,3.88,0,0,1,2,.09c.28.09.28.09.19.37s-.21.62-.31.93c0,.07,0,.07-.1.05a2.62,2.62,0,0,0-1.17-.21,1,1,0,0,0-.45.15.51.51,0,0,0-.11.75,1.52,1.52,0,0,0,.45.35,4.57,4.57,0,0,1,.77.53,1.67,1.67,0,0,1,.49,2,1.93,1.93,0,0,1-1.27,1.22,3.76,3.76,0,0,1-2.94-.13c-.15-.07-.14-.07-.09-.22.11-.33.23-.66.34-1A.5.5,0,0,1,16.54,11.88Z"/><path class="cls-1" d="M42.86,7.19c-.23,1.19-.46,2.36-.69,3.54-.16.87-.33,1.74-.5,2.62,0,.07,0,.11-.12.11-.53,0-1,0-1.58,0-.07,0-.09,0-.07-.09l1.14-6c0-.16,0-.16.2-.16Z"/><path class="cls-1" d="M42.2,6.42a.83.83,0,0,1-.85-1,1,1,0,0,1,1.3-.89.84.84,0,0,1,.59.85A1,1,0,0,1,42.2,6.42Z"/></svg>